<svg version="1.1" xmlns="http://www.w3.org/2000/svg" xmlns:xlink="http://www.w3.org/1999/xlink" x="0px" y="0px" viewBox="0 0 13 13" style="display: inline;" xml:space="preserve" class="uk-preserve uk-svg" width="13" height="13">
    <path class="st0" d="M5.6,1.4v10.2c0,0.8-0.6,1.4-1.4,1.4H1.4C0.6,13,0,12.4,0,11.6V1.4C0,0.6,0.6,0,1.4,0h2.8 C4.9,0,5.6,0.6,5.6,1.4z M13,1.4v10.2c0,0.8-0.6,1.4-1.4,1.4H8.8c-0.8,0-1.4-0.6-1.4-1.4V1.4C7.4,0.6,8.1,0,8.8,0h2.8 C12.4,0,13,0.6,13,1.4z" fill="white"></path>
</svg>