<svg version="1.1" xmlns="http://www.w3.org/2000/svg" xmlns:xlink="http://www.w3.org/1999/xlink" x="0px" y="0px" viewBox="0 0 13 13" style="display: inline;" xml:space="preserve" class="uk-preserve uk-svg" width="13" height="13">
    <path fill="white" class="st0" d="M2,13c-0.4,0-0.7-0.1-1.1-0.3C0.4,12.4,0,11.8,0,11.2V1.8c0-0.6,0.4-1.2,1-1.6c0.7-0.4,1.5-0.4,2.1,0L12,4.9 c0.6,0.3,1,0.9,1,1.6c0,0.7-0.4,1.3-1.1,1.6L3,12.7C2.7,12.9,2.3,13,2,13z M2,1.6c-0.1,0-0.2,0-0.3,0.1C1.6,1.7,1.6,1.8,1.6,1.8 v9.3c0,0,0,0.1,0.1,0.2c0.1,0.1,0.4,0.1,0.6,0l9-4.7c0.2-0.1,0.2-0.1,0.2-0.2c0-0.1,0-0.1-0.1-0.2l0,0l-9-4.7 C2.2,1.6,2.1,1.6,2,1.6z"></path>
</svg>